<?xml version="1.0" encoding="UTF-8" standalone="no"?>
<svg
   role="img"
   viewBox="0 0 24 24"
   version="1.1"
   id="svg6"
   sodipodi:docname="cplusplus.svg"
   inkscape:version="1.2.2 (732a01da63, 2022-12-09)"
   xmlns:inkscape="http://www.inkscape.org/namespaces/inkscape"
   xmlns:sodipodi="http://sodipodi.sourceforge.net/DTD/sodipodi-0.dtd"
   xmlns="http://www.w3.org/2000/svg"
   xmlns:svg="http://www.w3.org/2000/svg">
  <defs
     id="defs10" />
  <sodipodi:namedview
     id="namedview8"
     pagecolor="#505050"
     bordercolor="#ffffff"
     borderopacity="1"
     inkscape:showpageshadow="0"
     inkscape:pageopacity="0"
     inkscape:pagecheckerboard="1"
     inkscape:deskcolor="#505050"
     showgrid="false"
     inkscape:zoom="34.541667"
     inkscape:cx="7.9179735"
     inkscape:cy="14.330519"
     inkscape:window-width="1920"
     inkscape:window-height="1009"
     inkscape:window-x="-8"
     inkscape:window-y="-8"
     inkscape:window-maximized="1"
     inkscape:current-layer="svg6" />
  <title
     id="title2">C++</title>
  <path
     d="M 21.94644,6.4660579 C 21.789189,6.1960501 21.571673,5.9604915 21.332502,5.8236255 L 13.031144,1.084522 c -0.479287,-0.27373214 -1.261776,-0.27373214 -1.74012,0 L 2.9877835,5.8236255 C 2.5094386,6.0964265 2.1186647,6.7667909 2.1186647,7.313324 v 9.478207 c 0,0.273733 0.097929,0.577258 0.2551801,0.847266 0.1572512,0.270008 0.3747662,0.505567 0.6139387,0.642432 l 8.3013565,4.739104 c 0.478345,0.272801 1.261776,0.272801 1.740121,0 l 8.301357,-4.739104 c 0.239172,-0.136865 0.456687,-0.372424 0.613939,-0.642432 0.157251,-0.270008 0.254237,-0.573533 0.254237,-0.847266 V 7.313324 c 0.0029,-0.2737321 -0.09416,-0.5772581 -0.252354,-0.8472661 z"
     id="path1677"
     style="fill:#f2f2f2;fill-opacity:1;stroke-width:0.936328"
     sodipodi:nodetypes="cccccsssccccsscc" />
  <path
     d="M22.394 6c-.167-.29-.398-.543-.652-.69L12.926.22c-.509-.294-1.34-.294-1.848 0L2.26 5.31c-.508.293-.923 1.013-.923 1.6v10.18c0 .294.104.62.271.91.167.29.398.543.652.69l8.816 5.09c.508.293 1.34.293 1.848 0l8.816-5.09c.254-.147.485-.4.652-.69.167-.29.27-.616.27-.91V6.91c.003-.294-.1-.62-.268-.91zM12 19.11c-3.92 0-7.109-3.19-7.109-7.11 0-3.92 3.19-7.11 7.11-7.11a7.133 7.133 0 016.156 3.553l-3.076 1.78a3.567 3.567 0 00-3.08-1.78A3.56 3.56 0 008.444 12 3.56 3.56 0 0012 15.555a3.57 3.57 0 003.08-1.778l3.078 1.78A7.135 7.135 0 0112 19.11zm7.11-6.715h-.79v.79h-.79v-.79h-.79v-.79h.79v-.79h.79v.79h.79zm2.962 0h-.79v.79h-.79v-.79h-.79v-.79h.79v-.79h.79v.79h.79z"
     id="path4"
     style="fill:#3779b9;fill-opacity:1" />
</svg>
