<?xml version="1.0" encoding="UTF-8" standalone="no"?>
<svg
   role="img"
   viewBox="0 0 24 24"
   version="1.1"
   id="svg6"
   sodipodi:docname="inkscape.svg"
   inkscape:version="1.2.2 (732a01da63, 2022-12-09)"
   xmlns:inkscape="http://www.inkscape.org/namespaces/inkscape"
   xmlns:sodipodi="http://sodipodi.sourceforge.net/DTD/sodipodi-0.dtd"
   xmlns="http://www.w3.org/2000/svg"
   xmlns:svg="http://www.w3.org/2000/svg">
  <defs
     id="defs10" />
  <sodipodi:namedview
     id="namedview8"
     pagecolor="#505050"
     bordercolor="#ffffff"
     borderopacity="1"
     inkscape:showpageshadow="0"
     inkscape:pageopacity="0"
     inkscape:pagecheckerboard="1"
     inkscape:deskcolor="#505050"
     showgrid="false"
     inkscape:zoom="34.541667"
     inkscape:cx="7.9179735"
     inkscape:cy="9.6984318"
     inkscape:window-width="1920"
     inkscape:window-height="1009"
     inkscape:window-x="-8"
     inkscape:window-y="-8"
     inkscape:window-maximized="1"
     inkscape:current-layer="svg6" />
  <title
     id="title2">Inkscape</title>
  <path
     style="fill:#f2f2f2;stroke-width:37.7953;stroke-linecap:round;stroke-linejoin:round"
     d="m 4.6899879,7.6139928 4.6031363,-5.703257 1.6791318,-1.07117006 1.62123,-0.28950543 0.955368,0.83956579 4.168878,4.2267792 0.955368,3.0687575 -3.300362,2.6055492 -1.765983,4.082026 -0.55006,2.084439 c 0,0 -4.3136311,-0.173703 -4.4583838,-0.231604 -0.1447527,-0.0579 -2.9240048,-1.708082 -2.8661037,-1.823884 0.057901,-0.115802 0.6079614,-1.997588 0.6079614,-1.997588 0,0 -1.9396864,-4.2267789 -1.9396864,-4.3425811 0,-0.1158022 0.2895054,-1.4475271 0.2895054,-1.4475271 z"
     id="path847" />
  <path
     d="M7.666 14.871c.237.147 3.818.875 4.693 1.02.303.064.088.376-.33.587-.943.251-5.517-1.607-4.363-1.607zm5.647-13.264l3.505 3.56c.333.34.328.998.142 1.187l-1.74-1.392-.342 2.061-1.455-.767-2.328 1.47-.771-3.1L9.073 6.79H7.16c-.78 0-.871-.99-.163-1.698 1.237-1.335 2.657-2.696 3.429-3.485.776-.793 2.127-.77 2.887 0zM9.786.97l-8.86 9.066c-2.993 3.707 2.038 3.276 4.194 4.343.774.791-2.965 1.375-2.191 2.166.773.791 4.678 1.524 5.453 2.314.773.791-1.584 1.63-.81 2.42.773.792 2.563.042 2.898 1.868.238 1.304 3.224.56 4.684-.508.774-.791-1.48-.717-.706-1.508 1.923-1.967 3.715-.714 4.373-2.686.325-.974-2.832-1.501-2.057-2.292 2.226-1.3 9.919-2.146 6.268-5.796L13.85.97c-1.123-1.078-2.998-1.09-4.063 0zm10.177 17.475c0 .45 3.314.745 3.314-.106-.472-1.366-2.922-1.274-3.314.106zm-14.928 2.39c.784.679 1.997-.169 2.36-1.116-.76-1.01-3.607.037-2.36 1.116zm14.512-1.466c-1.011.908.114 1.828 1.111 1.242.222-.225-.006-1.016-1.11-1.242Z"
     id="path4" />
</svg>
