<?xml version="1.0" encoding="UTF-8" standalone="no"?>
<svg
   role="img"
   viewBox="0 0 24 24"
   version="1.1"
   id="svg6"
   sodipodi:docname="kdenlive.svg"
   inkscape:version="1.2.2 (732a01da63, 2022-12-09)"
   xmlns:inkscape="http://www.inkscape.org/namespaces/inkscape"
   xmlns:sodipodi="http://sodipodi.sourceforge.net/DTD/sodipodi-0.dtd"
   xmlns="http://www.w3.org/2000/svg"
   xmlns:svg="http://www.w3.org/2000/svg">
  <defs
     id="defs10" />
  <sodipodi:namedview
     id="namedview8"
     pagecolor="#505050"
     bordercolor="#ffffff"
     borderopacity="1"
     inkscape:showpageshadow="0"
     inkscape:pageopacity="0"
     inkscape:pagecheckerboard="1"
     inkscape:deskcolor="#505050"
     showgrid="false"
     inkscape:zoom="34.541667"
     inkscape:cx="7.9179735"
     inkscape:cy="12.014475"
     inkscape:window-width="1920"
     inkscape:window-height="1009"
     inkscape:window-x="-8"
     inkscape:window-y="-8"
     inkscape:window-maximized="1"
     inkscape:current-layer="svg6" />
  <title
     id="title2">Kdenlive</title>
  <path
     d="m 8.727,1.554 2.727,4.334 v 16.558 h 1.091 V 5.889 l 2.728,-4.335 z"
     id="path4"
     sodipodi:nodetypes="ccccccc"
     style="fill:#a04831;fill-opacity:1" />
  <path
     d="M 2.727,6.502 V 9.8 H 9.818 C 9.821,8.97 9.818,8.128 9.812,7.302 9.812,6.919 9.456,6.57 9.094,6.502 Z M 15.03,6.503 c -0.402,0.024 -0.835,0.41 -0.834,0.837 l -0.014,12.619 c 0,0.57 0.767,1.065 1.207,0.727 l 8.28,-6.331 c 0.441,-0.335 0.44,-1.12 0,-1.455 L 15.404,6.613 C 15.296819,6.5321498 15.163886,6.4930519 15.03,6.503 Z M -0.001,12 v 3.299 H 9.817 V 12 Z m 4.363,5.497 v 3.3 h 5.455 v -3.3 z"
     id="path847"
     sodipodi:nodetypes="cccccccccccccccccccccccc"
     style="fill:#245db9;fill-opacity:1" />
</svg>
