<?xml version="1.0" encoding="UTF-8" standalone="no"?>
<svg
   role="img"
   viewBox="0 0 24 24"
   version="1.1"
   id="svg6"
   sodipodi:docname="krita.svg"
   inkscape:version="1.2.2 (732a01da63, 2022-12-09)"
   xmlns:inkscape="http://www.inkscape.org/namespaces/inkscape"
   xmlns:sodipodi="http://sodipodi.sourceforge.net/DTD/sodipodi-0.dtd"
   xmlns:xlink="http://www.w3.org/1999/xlink"
   xmlns="http://www.w3.org/2000/svg"
   xmlns:svg="http://www.w3.org/2000/svg">
  <defs
     id="defs10">
    <linearGradient
       inkscape:collect="always"
       id="linearGradient874">
      <stop
         style="stop-color:#02faff;stop-opacity:1;"
         offset="0"
         id="stop870" />
      <stop
         style="stop-color:#ff35fa;stop-opacity:1;"
         offset="1"
         id="stop3056" />
    </linearGradient>
    <linearGradient
       inkscape:collect="always"
       xlink:href="#linearGradient874"
       id="linearGradient3786"
       x1="-9.2883027e-05"
       y1="11.999996"
       x2="24"
       y2="11.999996"
       gradientUnits="userSpaceOnUse"
       spreadMethod="repeat" />
  </defs>
  <sodipodi:namedview
     id="namedview8"
     pagecolor="#505050"
     bordercolor="#ffffff"
     borderopacity="1"
     inkscape:showpageshadow="0"
     inkscape:pageopacity="0"
     inkscape:pagecheckerboard="1"
     inkscape:deskcolor="#505050"
     showgrid="false"
     inkscape:zoom="34.541667"
     inkscape:cx="7.9179735"
     inkscape:cy="12.014475"
     inkscape:window-width="1920"
     inkscape:window-height="1009"
     inkscape:window-x="-8"
     inkscape:window-y="-8"
     inkscape:window-maximized="1"
     inkscape:current-layer="svg6" />
  <title
     id="title2">Krita</title>
  <path
     style="opacity:1;fill:#f2f2f2;fill-opacity:1;fill-rule:nonzero;stroke-width:37.7953;stroke-linecap:round;stroke-linejoin:round"
     d="m 20.699638,15.141134 -1.215923,4.110977 -4.80579,2.258142 -4.6899877,0.347407 c 0,0 -3.8793728,-1.447527 -3.9083233,-1.563329 -0.028951,-0.115803 -2.2291918,-2.576599 -2.3160434,-2.952956 -0.086852,-0.376357 -1.1869723,-4.80579 -1.1869723,-4.80579 0,0 2.4318456,-1.186972 2.7792521,-0.955368 0.3474065,0.231604 8.3088056,3.503016 8.3088056,3.503016 L 4.7189385,8.5983112 3.942,5.795 C 3.940758,4.7801644 3.9497868,3.7713201 5.758,3.812 l 10.599057,-0.6563908 5.268998,9.9879368 z"
     id="path4568"
     sodipodi:nodetypes="ccccsscsccccccc" />
  <path
     d="M.652.76a.625.625 0 00-.5.246c-.352.448-.035.898.362 1.262.206.189 1.77 1.794 3.428 3.527a11.054 11.054 0 011.815-1.983C3.667 2.515 1.694 1.266 1.461 1.1 1.201.914.917.762.652.76zm5.105 3.052c1.848 1.148 3.786 2.332 4.693 2.84 1.469.821 3.758 2.684 4.092 4.434.535.466 2.182 1.916 2.596 2.413.698-.211 1.518.133 2.06 1.12.866 1.583.227 3.747-1.968 4.988a5.42 5.42 0 01-.296.267l.296-.267c1.14-1.468-.714-2.44-1.175-3.864a2.06 2.06 0 01-.11-.78c-.533-.282-2.11-1.452-2.795-1.965-1.801.16-4.207-1.773-5.35-3.08-.7-.802-2.32-2.517-3.858-4.123a11.052 11.052 0 00-2.046 6.393A11.052 11.052 0 1012.948 1.136c-2.64.004-5.19.954-7.19 2.676zm8.71 7.552c-.515.126-.968.831-1.118 1.306-.038.115-.04.303.066.342.802.592 1.556 1.168 2.4 1.7.162-.393.746-.963 1.096-1.2zm-11.53 1.639c.812 1.898 5.798 7.17 12.06 2.695a2.07 2.07 0 00.114.715c.46 1.42 2.36 2.427 1.238 3.89-2.135 1.364-5 1.201-6.989.528-3.558-1.204-5.914-4.332-6.424-7.828zm13.782.7a.771.771 0 00-.065.049c-.004.003-.008.008-.011.008.003-.003.007-.008.01-.008.024-.015.044-.034.066-.048z"
     id="path4"
     style="fill-opacity:1;fill:url(#linearGradient3786);opacity:1;fill-rule:nonzero"
     inkscape:label="path4" />
</svg>
