<?xml version="1.0" encoding="UTF-8" standalone="no"?>
<svg
   role="img"
   viewBox="0 0 24 24"
   version="1.1"
   id="svg6"
   sodipodi:docname="obsidian.svg"
   inkscape:version="1.2.2 (732a01da63, 2022-12-09)"
   xmlns:inkscape="http://www.inkscape.org/namespaces/inkscape"
   xmlns:sodipodi="http://sodipodi.sourceforge.net/DTD/sodipodi-0.dtd"
   xmlns="http://www.w3.org/2000/svg"
   xmlns:svg="http://www.w3.org/2000/svg">
  <defs
     id="defs10" />
  <sodipodi:namedview
     id="namedview8"
     pagecolor="#505050"
     bordercolor="#ffffff"
     borderopacity="1"
     inkscape:showpageshadow="0"
     inkscape:pageopacity="0"
     inkscape:pagecheckerboard="1"
     inkscape:deskcolor="#505050"
     showgrid="false"
     inkscape:zoom="34.541667"
     inkscape:cx="8.0048251"
     inkscape:cy="11.551267"
     inkscape:window-width="1920"
     inkscape:window-height="1009"
     inkscape:window-x="-8"
     inkscape:window-y="-8"
     inkscape:window-maximized="1"
     inkscape:current-layer="svg6" />
  <title
     id="title2">Obsidian</title>
  <path
     d="M 15.074,0 C 12.586,1.374 10.1,2.749 7.613,4.124 L 8.436,8.39 14.801,3.375 Z m 0.172,0.059 -0.269,3.314 4.497,2.752 z M 14.893,3.525 8.487,8.576 15.877,23.943 17.054,21.584 19.58,6.4 C 19.568,6.391 14.892,3.525 14.892,3.525 Z M 7.468,4.304 4.418,10.898 9.033,21.51 8.293,8.576 8.281,8.512 Z M 8.493,8.992 9.223,21.776 15.71,24 Z"
     id="path4"
     style="display:inline;fill:#592ab2;fill-opacity:1" />
  <path
     d="M 15.074,0 C 12.586,1.374 10.1,2.749 7.613,4.124 L 8.436,8.39 14.801,3.375 Z M 7.468,4.304 4.418,10.898 9.033,21.51 8.293,8.576 8.281,8.512 Z M 8.493,8.992 9.223,21.776 15.71,24 Z"
     id="path847"
     style="fill:#39177c;fill-opacity:1"
     sodipodi:nodetypes="ccccccccccccccc" />
</svg>
