<?xml version="1.0" encoding="UTF-8" standalone="no"?>
<svg
   role="img"
   viewBox="0 0 24 24"
   version="1.1"
   id="svg6"
   sodipodi:docname="unrealengine.svg"
   inkscape:version="1.2.2 (732a01da63, 2022-12-09)"
   xmlns:inkscape="http://www.inkscape.org/namespaces/inkscape"
   xmlns:sodipodi="http://sodipodi.sourceforge.net/DTD/sodipodi-0.dtd"
   xmlns="http://www.w3.org/2000/svg"
   xmlns:svg="http://www.w3.org/2000/svg">
  <defs
     id="defs10" />
  <sodipodi:namedview
     id="namedview8"
     pagecolor="#505050"
     bordercolor="#ffffff"
     borderopacity="1"
     inkscape:showpageshadow="0"
     inkscape:pageopacity="0"
     inkscape:pagecheckerboard="1"
     inkscape:deskcolor="#505050"
     showgrid="false"
     inkscape:zoom="34.541667"
     inkscape:cx="3.893848"
     inkscape:cy="12.043426"
     inkscape:window-width="1920"
     inkscape:window-height="1009"
     inkscape:window-x="-8"
     inkscape:window-y="-8"
     inkscape:window-maximized="1"
     inkscape:current-layer="svg6" />
  <title
     id="title2">Unreal Engine</title>
  <circle
     style="fill:#000000;stroke-width:49.6791;stroke-linecap:round;stroke-linejoin:round;fill-opacity:1"
     id="path291"
     cx="11.942099"
     cy="11.971049"
     r="11.739445" />
  <path
     d="M12 0a12 12 0 1012 12A12 12 0 0012 0zm0 23.52A11.52 11.52 0 1123.52 12 11.52 11.52 0 0112 23.52zm7.13-9.791c-.206.997-1.126 3.557-4.06 4.942l-1.179-1.325-1.988 2a7.338 7.338 0 01-5.804-2.978 2.859 2.859 0 00.65.123c.326.006.678-.114.678-.66v-5.394a.89.89 0 00-1.116-.89c-.92.212-1.656 2.509-1.656 2.509a7.304 7.304 0 012.528-5.597 7.408 7.408 0 013.73-1.721c-1.006.573-1.57 1.507-1.57 2.29 0 1.262.76 1.109.984.923v7.28a1.157 1.157 0 00.148.256 1.075 1.075 0 00.88.445c.76 0 1.747-.868 1.747-.868V9.172c0-.6-.452-1.324-.905-1.572 0 0 .838-.149 1.484.346a5.537 5.537 0 01.387-.425c1.508-1.48 2.929-1.902 4.112-2.112 0 0-2.151 1.69-2.151 3.96 0 1.687.043 5.801.043 5.801.799.771 1.986-.342 3.059-1.441Z"
     id="path4"
     style="fill:#f2f2f2;fill-opacity:1" />
</svg>
